<svg width="35" height="34" viewBox="0 0 35 34" fill="none" xmlns="http://www.w3.org/2000/svg">
<path fill-rule="evenodd" clip-rule="evenodd" d="M23.5404 5.55374C21.4556 3.99013 18.0577 1.91801 14.6015 0.801388C11.2641 -0.276842 7.17738 -0.666866 4.53047 2.24473C3.26345 3.63845 2.78246 5.18644 3.08996 6.76414C3.1023 6.82746 3.11583 6.89039 3.13052 6.95294C2.55725 7.28191 2.0193 7.70701 1.53047 8.24473C0.263449 9.63845 -0.217541 11.1864 0.0899583 12.7641C0.376152 14.2325 1.30345 15.4938 2.32621 16.5234C4.07854 18.2874 6.6142 19.8451 8.4987 21.0028C8.79945 21.1876 9.08362 21.3621 9.34538 21.5257L10.1177 20.2901L9.34538 21.5257L11.7106 23.004L10.1861 25.7758C9.82599 26.4305 10.0026 27.2503 10.6004 27.6986C12.6852 29.2622 16.083 31.3344 19.5392 32.451C22.8766 33.5292 26.9634 33.9192 29.6103 31.0076C30.6795 29.8316 31.1889 28.5456 31.1372 27.2247C31.663 26.9068 32.1577 26.5055 32.6103 26.0076C33.8773 24.6139 34.3583 23.0659 34.0508 21.4882C33.7646 20.0199 32.8373 18.7586 31.8146 17.729C30.0622 15.965 27.5266 14.4073 25.6421 13.2496L25.6421 13.2496C25.3413 13.0648 25.0572 12.8902 24.7954 12.7266L24.0231 13.9623L24.7954 12.7266L22.0209 10.9926L23.9547 7.47662C24.3148 6.82193 24.1381 6.00205 23.5404 5.55374ZM17.4417 13.0382L16.5679 14.627L13.9354 12.9817C13.6386 12.7963 13.3305 12.6064 13.0154 12.4121L13.0153 12.4121L13.0153 12.4121C11.3904 11.4106 9.57804 10.2936 8.16509 9.06992C8.93748 9.16807 9.77792 9.36491 10.6792 9.6561C13.1069 10.4404 15.5716 11.7937 17.4417 13.0382ZM15.1976 23.8178C17.2214 25.1486 19.8628 26.5863 22.5392 27.451C24.2405 28.0006 26.1366 28.3714 27.9373 28.2172C27.8202 28.454 27.6444 28.7103 27.3905 28.9896C26.0374 30.478 23.6242 30.618 20.4615 29.5963C17.9281 28.7778 15.3542 27.3396 13.4579 26.052L14.4668 24.2178C14.484 24.214 14.5012 24.2098 14.5183 24.2054C14.7775 24.1379 15.0112 24.003 15.1976 23.8178ZM27.0723 25.2552C26.0208 25.2561 24.8092 25.0317 23.4615 24.5963C21.0339 23.812 18.5691 22.4587 16.6991 21.2141L17.9822 18.8812L20.2054 20.2706C20.5022 20.4561 20.8103 20.646 21.1254 20.8402C23.0384 22.0193 25.2112 23.3584 26.6862 24.8433C26.8256 24.9836 26.9542 25.1209 27.0723 25.2552ZM30.0993 24.2751C29.725 23.7133 29.2797 23.1972 28.8146 22.729C27.0622 20.965 24.5266 19.4073 22.6421 18.2496L22.6416 18.2493L22.6414 18.2492C22.3409 18.0646 22.057 17.8901 21.7954 17.7266L21.0231 18.9623L21.7954 17.7266L19.4302 16.2484L20.7962 13.7649L23.2054 15.2706C23.5022 15.4561 23.8103 15.646 24.1254 15.8402C26.0384 17.0193 28.2112 18.3584 29.6862 19.8433C30.5385 20.7012 30.9862 21.4462 31.1062 22.0622C31.205 22.5688 31.1235 23.1833 30.3905 23.9896C30.2983 24.091 30.2012 24.1861 30.0993 24.2751ZM13.1586 20.3712L14.9338 17.1435L12.3454 15.5257L13.1177 14.2901L12.3454 15.5257C12.0836 15.3621 11.7995 15.1876 11.4987 15.0028L11.4987 15.0028L11.4987 15.0028C9.61418 13.8451 7.07854 12.2874 5.32621 10.5234C5.04635 10.2417 4.77364 9.94258 4.51926 9.62667C4.23408 9.80134 3.97727 10.0131 3.75029 10.2628C3.0173 11.069 2.9358 11.6835 3.03455 12.1902C3.15461 12.8062 3.60232 13.5512 4.45456 14.4091C5.92954 15.8939 8.10233 17.2331 10.0153 18.4121L10.0153 18.4121L10.0154 18.4121C10.3305 18.6064 10.6386 18.7963 10.9354 18.9817L13.1586 20.3712ZM18.9144 10.4157L20.6828 7.20033C18.7866 5.91281 16.2127 4.47461 13.6792 3.6561C10.5166 2.63433 8.10338 2.77435 6.75029 4.26275C6.08199 4.99788 5.95526 5.57358 6.01294 6.0535C7.86998 5.85495 9.84012 6.23232 11.6015 6.80139C14.2653 7.66199 16.8944 9.09017 18.9144 10.4157Z" fill="white"/>
</svg>
