<svg width="35" height="34" viewBox="0 0 35 34" fill="none" xmlns="http://www.w3.org/2000/svg">
<path fill-rule="evenodd" clip-rule="evenodd" d="M24.04 6.0551C21.9552 4.49149 18.5574 2.41937 15.1012 1.30275C11.7638 0.224516 7.67702 -0.165508 5.03011 2.74609C3.76309 4.13981 3.2821 5.6878 3.5896 7.26549C3.60194 7.32882 3.61548 7.39175 3.63016 7.4543C3.05689 7.78326 2.51895 8.20837 2.03011 8.74609C0.763092 10.1398 0.282102 11.6878 0.589601 13.2655C0.875795 14.7339 1.80309 15.9952 2.82585 17.0247C4.57819 18.7887 7.11385 20.3465 8.99834 21.5042C9.29909 21.6889 9.58326 21.8635 9.84502 22.0271L10.6173 20.7914L9.84502 22.0271L12.2102 23.5053L10.6857 26.2771C10.3256 26.9318 10.5023 27.7517 11.1 28.2C13.1849 29.7636 16.5827 31.8357 20.0389 32.9524C23.3763 34.0306 27.463 34.4206 30.1099 31.509C31.1791 30.3329 31.6886 29.047 31.6368 27.726C32.1627 27.4082 32.6574 27.0069 33.11 26.509C34.377 25.1153 34.858 23.5673 34.5505 21.9896C34.2643 20.5212 33.337 19.2599 32.3142 18.2304C30.5619 16.4664 28.0262 14.9086 26.1417 13.7509L26.1417 13.7509C25.841 13.5662 25.5568 13.3916 25.295 13.228L24.5228 14.4637L25.295 13.228L22.5206 11.494L24.4543 7.97798C24.8144 7.32329 24.6378 6.50341 24.04 6.0551ZM17.9413 13.5396L17.0675 15.1284L14.435 13.4831C14.1383 13.2976 13.8302 13.1077 13.515 12.9135L13.515 12.9135L13.5149 12.9135C11.8901 11.912 10.0777 10.795 8.66473 9.57128C9.43712 9.66943 10.2776 9.86627 11.1789 10.1575C13.6065 10.9418 16.0713 12.2951 17.9413 13.5396ZM15.6973 24.3192C17.7211 25.65 20.3625 27.0877 23.0389 27.9523C24.7402 28.502 26.6362 28.8728 28.4369 28.7186C28.3198 28.9554 28.1441 29.2117 27.8901 29.491C26.537 30.9794 24.1238 31.1194 20.9612 30.0976C18.4277 29.2791 15.8538 27.8409 13.9576 26.5534L14.9664 24.7192C14.9836 24.7153 15.0008 24.7112 15.0179 24.7067C15.2771 24.6392 15.5108 24.5044 15.6973 24.3192ZM27.572 25.7565C26.5205 25.7575 25.3089 25.533 23.9612 25.0976C21.5336 24.3133 19.0688 22.96 17.1987 21.7155L18.4819 19.3825L20.705 20.772C21.0018 20.9575 21.3099 21.1474 21.6251 21.3416C23.538 22.5206 25.7108 23.8598 27.1859 25.3446C27.3253 25.485 27.4539 25.6223 27.572 25.7565ZM30.599 24.7764C30.2247 24.2147 29.7793 23.6986 29.3142 23.2304C27.5619 21.4664 25.0262 19.9086 23.1417 18.7509L23.1412 18.7506L23.141 18.7505C22.8405 18.5659 22.5566 18.3915 22.295 18.228L21.5228 19.4637L22.295 18.228L19.9299 16.7498L21.2958 14.2662L23.705 15.772C24.0018 15.9575 24.3099 16.1474 24.6251 16.3416C26.538 17.5206 28.7109 18.8598 30.1859 20.3446C31.0381 21.2026 31.4858 21.9475 31.6059 22.5635C31.7046 23.0702 31.6231 23.6847 30.8901 24.491C30.798 24.5924 30.7009 24.6875 30.599 24.7764ZM13.6582 20.8726L15.4334 17.6448L12.845 16.0271L13.6173 14.7914L12.845 16.0271C12.5833 15.8635 12.2991 15.6889 11.9983 15.5042L11.9983 15.5042L11.9983 15.5041C10.1138 14.3465 7.57818 12.7887 5.82585 11.0247C5.54599 10.743 5.27328 10.4439 5.0189 10.128C4.73372 10.3027 4.47691 10.5144 4.24993 10.7641C3.51695 11.5704 3.43544 12.1849 3.53419 12.6916C3.65425 13.3076 4.10196 14.0525 4.9542 14.9105C6.42919 16.3953 8.60197 17.7344 10.5149 18.9134L10.515 18.9135L10.515 18.9135C10.8302 19.1077 11.1383 19.2976 11.435 19.4831L13.6582 20.8726ZM19.4141 10.917L21.1825 7.70169C19.2863 6.41417 16.7123 4.97596 14.1789 4.15746C11.0163 3.13569 8.60302 3.27571 7.24993 4.76411C6.58164 5.49923 6.4549 6.07494 6.51258 6.55485C8.36962 6.35631 10.3398 6.73368 12.1012 7.30275C14.7649 8.16335 17.394 9.59153 19.4141 10.917Z" fill="black"/>
</svg>
